<svg width="1200" height="700" viewBox="0 0 1200 700" fill="none" xmlns="http://www.w3.org/2000/svg">
  <defs>
    <linearGradient id="bg" x1="0" y1="0" x2="1200" y2="700" gradientUnits="userSpaceOnUse">
      <stop offset="0%" stop-color="#0a3b31" />
      <stop offset="100%" stop-color="#1e6b55" />
    </linearGradient>
    <linearGradient id="shape" x1="0" y1="0" x2="1200" y2="700" gradientUnits="userSpaceOnUse">
      <stop offset="0%" stop-color="#36d6a5" />
      <stop offset="100%" stop-color="#0f4f3d" />
    </linearGradient>
  </defs>
  <rect width="1200" height="700" rx="32" fill="url(#bg)" />
  <circle cx="300" cy="220" r="120" fill="#fff" fill-opacity="0.22" />
  <circle cx="820" cy="210" r="100" fill="#fff" fill-opacity="0.16" />
  <path d="M220 500C240 360 320 280 470 260C620 240 760 340 840 500C900 620 980 600 1040 500" stroke="#fff" stroke-opacity="0.26" stroke-width="24" stroke-linecap="round" />
  <path d="M330 520C365 410 455 360 556 360C655 360 745 430 780 520C800 570 860 560 896 520" stroke="#fff" stroke-width="18" stroke-linecap="round" />
  <g opacity="0.95">
    <rect x="138" y="328" width="250" height="210" rx="28" fill="url(#shape)" />
    <rect x="160" y="363" width="128" height="14" rx="7" fill="#fff" opacity="0.9" />
    <rect x="160" y="393" width="210" height="20" rx="10" fill="#fff" opacity="0.78" />
    <rect x="160" y="427" width="182" height="20" rx="10" fill="#fff" opacity="0.78" />
    <rect x="160" y="462" width="228" height="20" rx="10" fill="#fff" opacity="0.78" />
  </g>
  <g opacity="0.9">
    <rect x="620" y="320" width="320" height="260" rx="28" fill="#fff" />
    <circle cx="760" cy="390" r="42" fill="#0a3b31" />
    <rect x="690" y="470" width="140" height="16" rx="8" fill="#0a3b31" />
    <rect x="690" y="510" width="180" height="16" rx="8" fill="#0a3b31" />
    <rect x="690" y="550" width="120" height="16" rx="8" fill="#0a3b31" />
  </g>
</svg>
